<?xml version="1.0" encoding="iso-8859-1"?>
<!-- Uploaded to: SVG Repo, www.svgrepo.com, Generator: SVG Repo Mixer Tools -->
<svg height="800px" width="800px" version="1.1" id="Layer_1"
     xmlns="http://www.w3.org/2000/svg"
     viewBox="0 0 504.159 504.159" xml:space="preserve">
<path style="fill:#99B5B5;" d="M360.576,190.665c-7.704,7.704-20.196,7.704-27.9,0l-19.18-19.204
	c-7.704-7.688-7.704-20.181-0.016-27.892l13.525-13.509c7.712-7.712,20.196-7.712,27.908,0l19.196,19.18
	c7.68,7.704,7.68,20.204,0,27.892L360.576,190.665z"/>
  <path style="fill:#88A3A2;" d="M360.576,190.665l12.902-12.895c-0.567-0.733-1.111-1.481-1.788-2.15l-43.158-43.158
	c-0.67-0.662-1.426-1.213-2.143-1.772l-12.902,12.879c-0.291,0.291-0.496,0.654-0.772,0.961l46.899,46.907
	C359.938,191.193,360.277,190.972,360.576,190.665z"/>
  <g>
	<path style="fill:#205F72;" d="M26.587,482.796c-1.465,1.457-3.797,1.441-5.238,0.008l0,0c-1.449-1.449-1.449-3.781,0.008-5.246
		l117.421-117.406c1.441-1.457,3.805-1.457,5.238,0l0,0c1.449,1.426,1.441,3.773,0,5.207L26.587,482.796z"/>
    <path style="fill:#205F72;" d="M293.434,333.245c-2.528,2.521-6.624,2.521-9.169,0.008L170.9,219.888
		c-2.513-2.536-2.513-6.648,0-9.161l0,0c2.521-2.536,6.632-2.536,9.177-0.008l113.357,113.388
		C295.978,326.621,295.97,330.709,293.434,333.245L293.434,333.245z"/>
</g>
  <path style="fill:#1F3954;" d="M345.539,229.679c-7.711,7.712-20.212,7.712-27.924,0.016l-43.158-43.166
	c-7.704-7.712-7.712-20.212,0-27.908l19.204-19.188c7.704-7.712,20.181-7.704,27.908,0l43.142,43.158
	c7.727,7.712,7.727,20.189,0.016,27.916L345.539,229.679z"/>
  <path style="fill:#0E253A;" d="M293.662,139.433c7.704-7.712,20.181-7.704,27.908,0l43.142,43.158
	c7.727,7.712,7.727,20.189,0.016,27.916l-19.188,19.18c-7.711,7.712-20.212,7.712-27.924,0.016"/>
  <path style="fill:#18456D;" d="M293.662,139.433c7.704-7.712,20.181-7.704,27.908,0l43.142,43.158
	c7.727,7.712,7.727,20.189,0.016,27.916"/>
  <path style="fill:#738E8C;" d="M204.85,385.658c-10.169,10.145-26.663,10.169-36.84-0.016l-49.483-49.491
	c-10.201-10.193-10.185-26.671-0.016-36.856l99.383-99.367c10.153-10.185,26.663-10.177,57.769-20.921l49.491,49.491
	c-10.744,31.106-10.768,47.592-20.921,57.746L204.85,385.658z"/>
  <path style="fill:#5E7A77;" d="M217.894,199.928c10.153-10.185,26.663-10.177,57.769-20.921l49.491,49.491
	c-10.744,31.106-10.768,47.592-20.921,57.746l-99.383,99.415c-10.169,10.145-26.663,10.169-36.84-0.016"/>
  <path style="fill:#455B58;" d="M217.894,199.928c10.153-10.185,26.663-10.177,57.769-20.921l49.491,49.491
	c-10.744,31.106-10.768,47.592-20.921,57.746"/>
  <path style="fill:#324441;"
        d="M275.663,179.007l49.491,49.491c-10.744,31.106-10.768,47.592-20.921,57.746"/>
  <path style="fill:#205F72;" d="M270.48,180.685c0.961,2.111,2.245,4.12,3.986,5.845l43.158,43.166
	c1.741,1.717,3.749,3.009,5.845,3.97c0.583-1.741,1.063-3.356,1.694-5.167l-49.491-49.491
	C273.852,179.629,272.229,180.126,270.48,180.685z"/>
  <path style="fill:#1F3954;" d="M176.847,399.364c-3.033,3.064-7.971,3.064-11.02,0l-61.038-61.038
	c-3.056-3.056-3.048-7.987,0-11.036l0,0c3.048-3.041,7.987-3.056,11.028,0l61.03,61.038
	C179.927,391.377,179.896,396.316,176.847,399.364L176.847,399.364z"/>
  <g>
	<path style="fill:#99B5B5;" d="M225.188,254.539c-0.819,0.851-2.19,0.851-3.048,0l-17.888-17.889
		c-0.835-0.835-0.835-2.198,0.008-3.064l0,0c0.843-0.819,2.221-0.827,3.048,0.016l17.881,17.881
		C226.039,252.333,226.039,253.696,225.188,254.539L225.188,254.539z"/>
    <path style="fill:#99B5B5;" d="M212.774,266.969c-0.827,0.859-2.206,0.859-3.064,0.008l-17.881-17.881
		c-0.835-0.859-0.819-2.213,0-3.064l0,0c0.843-0.827,2.213-0.851,3.072,0l17.873,17.881
		C213.601,264.763,213.601,266.126,212.774,266.969L212.774,266.969z"/>
    <path style="fill:#99B5B5;" d="M200.336,279.406c-0.827,0.843-2.19,0.843-3.056,0l-17.881-17.888c-0.843-0.843-0.819-2.213,0-3.056
		l0,0c0.843-0.843,2.221-0.843,3.064,0l17.873,17.888C201.187,277.185,201.187,278.54,200.336,279.406L200.336,279.406z"/>
    <path style="fill:#99B5B5;" d="M187.914,291.828c-0.835,0.843-2.198,0.835-3.048-0.008l-17.888-17.881
		c-0.843-0.843-0.835-2.206,0-3.056l0,0c0.835-0.835,2.206-0.835,3.064,0l17.873,17.888
		C188.765,289.623,188.749,290.97,187.914,291.828L187.914,291.828z"/>
    <path style="fill:#99B5B5;" d="M175.492,304.258c-0.843,0.835-2.221,0.835-3.056,0l-17.888-17.888
		c-0.843-0.851-0.843-2.213,0-3.056l0,0c0.827-0.827,2.198-0.843,3.056,0l17.889,17.888
		C176.327,302.037,176.327,303.415,175.492,304.258L175.492,304.258z"/>
</g>
  <circle style="fill:#349DD1;" cx="17.765" cy="486.412" r="17.747"/>
  <path style="fill:#108EBF;"
        d="M0.026,486.372c0,9.815,7.932,17.739,17.747,17.762c9.791,0.008,17.747-7.932,17.747-17.762"/>
  <path style="fill:#EA3C13;" d="M85.648,467.255c3.174-3.167,3.167-8.334,0-11.532l-37.242-37.211
	c-3.167-3.167-8.326-3.182-11.516,0.016l0,0c-3.174,3.167-3.174,8.318,0,11.5l37.25,37.234
	C77.307,470.422,82.466,470.461,85.648,467.255L85.648,467.255z"/>
  <path style="fill:#C63205;" d="M74.132,467.255c3.167,3.159,8.334,3.198,11.516,0l0,0c3.174-3.167,3.167-8.334,0-11.532
	l-37.242-37.211"/>
  <path style="fill:#EA3C13;" d="M104.821,448.075c3.198-3.182,3.198-8.334,0-11.532l-37.218-37.211
	c-3.174-3.182-8.357-3.182-11.524-0.008l0,0c-3.174,3.182-3.174,8.326,0,11.5l37.234,37.25
	C96.487,451.257,101.646,451.257,104.821,448.075L104.821,448.075z"/>
  <path style="fill:#C63205;" d="M93.313,448.075c3.174,3.182,8.342,3.182,11.508,0l0,0c3.198-3.182,3.198-8.334,0-11.532
	l-37.218-37.211"/>
  <path style="fill:#EA3C13;" d="M124.009,428.887c3.19-3.167,3.19-8.334,0.024-11.532l-37.25-37.218
	c-3.182-3.182-8.334-3.182-11.524,0l0,0c-3.174,3.182-3.182,8.318,0,11.5l37.234,37.25
	C115.683,432.077,120.834,432.061,124.009,428.887L124.009,428.887z"/>
  <path style="fill:#C63205;" d="M112.493,428.887c3.182,3.182,8.342,3.167,11.516,0l0,0c3.19-3.167,3.19-8.334,0.024-11.532
	l-37.25-37.218"/>
  <path style="fill:#EA3C13;" d="M143.197,409.706c3.174-3.182,3.174-8.35,0.016-11.532l-37.25-37.218
	c-3.167-3.19-8.326-3.182-11.524-0.008l0,0c-3.159,3.19-3.159,8.334,0.016,11.532l37.234,37.211
	C134.848,412.889,140.007,412.889,143.197,409.706L143.197,409.706z"/>
  <path style="fill:#C63205;" d="M131.681,409.691c3.167,3.198,8.334,3.198,11.516,0.016l0,0c3.174-3.182,3.174-8.35,0.016-11.532
	l-37.25-37.218"/>
  <path style="fill:#0B8CDB;" d="M432.958,192.421c-7.696,7.696-20.196,7.704-27.908-0.008l-93.294-93.31
	c-7.712-7.712-7.712-20.204,0-27.916l65.402-65.41c7.712-7.704,20.181-7.704,27.892,0l93.31,93.326c7.704,7.712,7.711,20.204,0,27.9
	L432.958,192.421z"/>
  <path style="fill:#1F76CC;" d="M430.35,195.021c-7.712,7.712-20.204,7.712-27.908,0l-93.318-93.302
	c-7.712-7.712-7.704-20.204,0-27.916l65.418-65.402c7.711-7.719,20.196-7.719,27.892-0.008l93.326,93.326
	c7.712,7.688,7.712,20.189-0.016,27.9L430.35,195.021z"/>
  <path style="fill:#085BBF;" d="M374.542,8.401c7.711-7.719,20.196-7.719,27.892-0.008l93.326,93.326
	c7.712,7.688,7.712,20.189-0.016,27.9l-65.394,65.402c-7.712,7.712-20.204,7.712-27.908,0"/>
  <g>
	<circle style="fill:#27D6FF;" cx="468.853" cy="112.581" r="1.843"/>
    <circle style="fill:#27D6FF;" cx="462.787" cy="106.508" r="1.843"/>
    <circle style="fill:#27D6FF;" cx="456.722" cy="100.364" r="1.851"/>
    <path style="fill:#27D6FF;" d="M449.279,92.96c-0.725,0.74-0.725,1.898-0.016,2.615c0.748,0.717,1.906,0.74,2.631,0
		c0.701-0.709,0.709-1.875,0-2.615C451.161,92.251,450.003,92.251,449.279,92.96z"/>
    <path style="fill:#27D6FF;" d="M438.085,81.774c-0.748,0.709-0.725,1.898,0,2.599c0.725,0.74,1.883,0.74,2.607,0.016
		c0.725-0.717,0.725-1.906,0-2.631S438.81,81.034,438.085,81.774z"/>
    <circle style="fill:#27D6FF;" cx="433.249" cy="76.977" r="1.851"/>
    <circle style="fill:#27D6FF;" cx="427.184" cy="70.865" r="1.851"/>
    <path style="fill:#27D6FF;" d="M419.772,63.468c-0.733,0.717-0.733,1.883,0,2.607c0.725,0.701,1.906,0.725,2.615,0.008
		c0.725-0.733,0.725-1.898,0-2.631C421.678,62.736,420.496,62.736,419.772,63.468z"/>
    <circle style="fill:#27D6FF;" cx="409.855" cy="53.575" r="1.843"/>
    <circle style="fill:#27D6FF;" cx="403.781" cy="47.47" r="1.851"/>
    <path style="fill:#27D6FF;" d="M396.346,40.058c-0.693,0.709-0.693,1.883,0.008,2.615c0.725,0.717,1.891,0.717,2.647,0
		c0.709-0.733,0.709-1.89-0.016-2.615C398.252,39.341,397.094,39.341,396.346,40.058z"/>
    <circle style="fill:#27D6FF;" cx="391.58" cy="35.261" r="1.851"/>
    <path style="fill:#27D6FF;" d="M456.47,122.38c-0.717,0.733-0.717,1.914,0.008,2.607c0.733,0.74,1.875,0.74,2.599,0.024
		c0.725-0.733,0.74-1.883,0-2.623C458.376,121.679,457.203,121.679,456.47,122.38z"/>
    <circle style="fill:#27D6FF;" cx="451.673" cy="117.606" r="1.851"/>
    <path style="fill:#27D6FF;" d="M444.277,110.194c-0.74,0.717-0.74,1.875,0,2.599c0.709,0.725,1.875,0.733,2.599,0
		c0.725-0.717,0.725-1.898,0-2.599C446.159,109.454,444.986,109.47,444.277,110.194z"/>
    <circle style="fill:#27D6FF;" cx="439.472" cy="105.397" r="1.851"/>
    <path style="fill:#27D6FF;" d="M426.955,92.889c-0.709,0.725-0.709,1.89,0,2.631c0.74,0.693,1.914,0.709,2.631,0
		c0.717-0.74,0.717-1.914,0-2.631C428.869,92.148,427.696,92.164,426.955,92.889z"/>
    <path style="fill:#27D6FF;" d="M420.851,86.784c-0.709,0.725-0.709,1.89,0,2.623c0.733,0.709,1.906,0.717,2.631,0
		c0.717-0.748,0.717-1.898,0-2.623S421.583,86.059,420.851,86.784z"/>
    <circle style="fill:#27D6FF;" cx="416.077" cy="81.987" r="1.851"/>
    <path style="fill:#27D6FF;" d="M408.657,74.575c-0.733,0.725-0.733,1.89,0,2.615c0.701,0.733,1.883,0.733,2.615-0.016
		c0.725-0.701,0.725-1.883,0-2.599C410.54,73.858,409.358,73.858,408.657,74.575z"/>
    <path style="fill:#27D6FF;" d="M397.456,63.382c-0.717,0.733-0.717,1.883,0,2.607c0.725,0.725,1.89,0.725,2.631,0
		c0.701-0.717,0.701-1.875,0-2.623C399.347,62.665,398.189,62.665,397.456,63.382z"/>
    <circle style="fill:#27D6FF;" cx="392.683" cy="58.585" r="1.851"/>
    <circle style="fill:#27D6FF;" cx="386.555" cy="52.48" r="1.851"/>
    <path style="fill:#27D6FF;" d="M379.15,45.06c-0.733,0.733-0.733,1.898,0,2.623c0.717,0.725,1.883,0.725,2.607,0.008
		c0.725-0.733,0.725-1.906,0-2.607C381.049,44.327,379.875,44.343,379.15,45.06z"/>
    <path style="fill:#27D6FF;" d="M445.348,133.518c-0.717,0.725-0.717,1.883,0,2.599c0.74,0.733,1.898,0.733,2.615,0
		c0.725-0.717,0.725-1.89,0-2.599C447.262,132.785,446.088,132.777,445.348,133.518z"/>
    <circle style="fill:#27D6FF;" cx="440.575" cy="128.721" r="1.843"/>
    <path style="fill:#27D6FF;" d="M433.139,121.285c-0.725,0.733-0.733,1.898,0,2.631c0.717,0.717,1.89,0.717,2.615,0
		c0.725-0.733,0.725-1.883,0-2.631C435.037,120.592,433.871,120.592,433.139,121.285z"/>
    <path style="fill:#27D6FF;" d="M427.05,115.188c-0.74,0.74-0.74,1.898-0.016,2.623c0.74,0.717,1.875,0.725,2.623,0
		c0.717-0.717,0.717-1.883,0-2.615C428.909,114.479,427.759,114.479,427.05,115.188z"/>
    <path style="fill:#27D6FF;" d="M415.849,104.003c-0.725,0.717-0.725,1.906-0.008,2.615c0.733,0.725,1.914,0.74,2.607,0
		c0.74-0.709,0.74-1.898,0.016-2.615C417.755,103.27,416.574,103.27,415.849,104.003z"/>
    <path style="fill:#27D6FF;" d="M409.736,97.898c-0.701,0.74-0.717,1.906,0,2.615c0.733,0.74,1.898,0.74,2.639-0.008
		c0.709-0.701,0.709-1.883,0-2.607C411.635,97.174,410.461,97.174,409.736,97.898z"/>
    <path style="fill:#27D6FF;" d="M403.632,91.786c-0.725,0.74-0.725,1.906,0,2.615c0.725,0.725,1.906,0.74,2.615,0.016
		c0.74-0.74,0.74-1.89,0-2.631C405.554,91.085,404.356,91.085,403.632,91.786z"/>
    <circle style="fill:#27D6FF;" cx="398.827" cy="87.005" r="1.851"/>
    <path style="fill:#27D6FF;" d="M386.35,74.52c-0.733,0.685-0.733,1.867,0,2.592c0.717,0.725,1.883,0.725,2.615,0
		c0.717-0.725,0.717-1.89,0-2.615C388.232,73.756,387.067,73.779,386.35,74.52z"/>
    <circle style="fill:#27D6FF;" cx="381.545" cy="69.715" r="1.851"/>
    <circle style="fill:#27D6FF;" cx="375.432" cy="63.594" r="1.859"/>
    <circle style="fill:#27D6FF;" cx="369.367" cy="57.498" r="1.843"/>
    <path style="fill:#27D6FF;" d="M434.234,144.616c-0.725,0.725-0.725,1.914,0,2.631c0.733,0.725,1.883,0.725,2.615,0
		c0.733-0.717,0.733-1.89,0-2.631C436.14,143.923,434.966,143.915,434.234,144.616z"/>
    <circle style="fill:#27D6FF;" cx="429.468" cy="139.843" r="1.851"/>
    <path style="fill:#27D6FF;" d="M422.032,132.439c-0.725,0.717-0.725,1.883,0,2.599c0.709,0.725,1.883,0.733,2.607,0
		c0.717-0.725,0.717-1.906,0-2.599C423.915,131.682,422.741,131.698,422.032,132.439z"/>
    <circle style="fill:#27D6FF;" cx="417.259" cy="127.634" r="1.851"/>
    <circle style="fill:#27D6FF;" cx="406.074" cy="116.433" r="1.851"/>
    <circle style="fill:#27D6FF;" cx="399.93" cy="110.336" r="1.851"/>
    <circle style="fill:#27D6FF;" cx="393.786" cy="104.224" r="1.851"/>
    <circle style="fill:#27D6FF;" cx="387.728" cy="98.119" r="1.851"/>
    <path style="fill:#27D6FF;" d="M375.228,85.602c-0.725,0.748-0.725,1.898,0,2.631c0.717,0.717,1.883,0.717,2.623-0.008
		c0.709-0.709,0.709-1.875,0-2.623C377.11,84.901,375.952,84.894,375.228,85.602z"/>
    <circle style="fill:#27D6FF;" cx="370.423" cy="80.821" r="1.851"/>
    <circle style="fill:#27D6FF;" cx="364.318" cy="74.717" r="1.851"/>
    <circle style="fill:#27D6FF;" cx="358.213" cy="68.62" r="1.843"/>
    <path style="fill:#27D6FF;" d="M423.111,155.754c-0.709,0.717-0.693,1.883,0,2.599c0.74,0.733,1.89,0.733,2.615,0
		c0.725-0.725,0.725-1.89,0-2.599C425.002,155.03,423.852,155.03,423.111,155.754z"/>
    <circle style="fill:#27D6FF;" cx="418.314" cy="150.957" r="1.851"/>
    <path style="fill:#27D6FF;" d="M410.91,143.545c-0.725,0.717-0.725,1.898,0,2.607c0.709,0.725,1.891,0.725,2.607,0.008
		s0.717-1.883,0-2.631C412.801,142.828,411.619,142.828,410.91,143.545z"/>
    <circle style="fill:#27D6FF;" cx="406.074" cy="138.724" r="1.851"/>
    <circle style="fill:#27D6FF;" cx="394.92" cy="127.547" r="1.843"/>
    <circle style="fill:#27D6FF;" cx="388.807" cy="121.435" r="1.835"/>
    <path style="fill:#27D6FF;" d="M381.403,114.03c-0.725,0.733-0.725,1.898,0,2.631c0.725,0.717,1.906,0.709,2.607,0
		c0.748-0.748,0.748-1.898,0-2.631C383.309,113.313,382.128,113.306,381.403,114.03z"/>
    <circle style="fill:#27D6FF;" cx="376.614" cy="109.249" r="1.851"/>
    <path style="fill:#27D6FF;" d="M364.113,96.74c-0.725,0.701-0.725,1.89,0,2.599c0.717,0.74,1.883,0.74,2.599,0
		c0.733-0.725,0.733-1.89,0.016-2.599C365.996,96,364.822,96.008,364.113,96.74z"/>
    <circle style="fill:#27D6FF;" cx="359.285" cy="91.943" r="1.851"/>
    <path style="fill:#27D6FF;" d="M351.88,84.515c-0.717,0.74-0.717,1.906,0.016,2.631c0.725,0.725,1.898,0.725,2.615,0
		c0.725-0.725,0.725-1.89,0-2.615C353.794,83.807,352.621,83.822,351.88,84.515z"/>
    <path style="fill:#27D6FF;" d="M345.792,78.419c-0.748,0.74-0.748,1.89-0.008,2.615c0.733,0.74,1.906,0.74,2.615,0
		c0.725-0.725,0.725-1.89,0-2.615S346.516,77.694,345.792,78.419z"/>
    <circle style="fill:#27D6FF;" cx="413.305" cy="168.176" r="1.851"/>
    <path style="fill:#27D6FF;" d="M405.892,160.756c-0.725,0.74-0.725,1.906,0,2.615c0.725,0.748,1.89,0.748,2.615,0.016
		c0.725-0.74,0.725-1.89,0-2.647C407.791,160.032,406.617,160.032,405.892,160.756z"/>
    <circle style="fill:#27D6FF;" cx="401.111" cy="155.975" r="1.843"/>
    <path style="fill:#27D6FF;" d="M393.691,148.555c-0.717,0.709-0.717,1.906,0,2.599c0.717,0.74,1.883,0.74,2.615,0.016
		c0.717-0.709,0.717-1.89,0-2.631C395.574,147.822,394.4,147.822,393.691,148.555z"/>
    <circle style="fill:#27D6FF;" cx="383.782" cy="138.646" r="1.859"/>
    <path style="fill:#27D6FF;" d="M376.378,131.265c-0.733,0.709-0.733,1.883,0.008,2.615c0.725,0.709,1.898,0.709,2.615,0
		c0.733-0.756,0.733-1.906,0-2.623C378.284,130.532,377.11,130.532,376.378,131.265z"/>
    <circle style="fill:#27D6FF;" cx="371.588" cy="126.468" r="1.851"/>
    <circle style="fill:#27D6FF;" cx="365.484" cy="120.363" r="1.835"/>
    <path style="fill:#27D6FF;" d="M352.991,107.855c-0.725,0.733-0.725,1.883,0,2.615c0.725,0.717,1.883,0.717,2.607,0
		c0.733-0.717,0.733-1.89,0-2.631C354.874,107.146,353.708,107.13,352.991,107.855z"/>
    <circle style="fill:#27D6FF;" cx="348.178" cy="103.058" r="1.851"/>
    <circle style="fill:#27D6FF;" cx="342.089" cy="96.953" r="1.851"/>
    <circle style="fill:#27D6FF;" cx="335.969" cy="90.833" r="1.843"/>
</g>
  <path style="fill:#349DD1;" d="M180.51,214.934c23.938-24.056,23.954-62.897,0.008-86.867c-23.977-23.906-62.858-23.977-86.819,0
	c-23.985,23.969-23.985,62.874,0.016,86.875C117.66,238.872,156.493,238.95,180.51,214.934z"/>
  <path style="fill:#41C0F2;"
        d="M180.518,128.067c-23.977-23.906-62.858-23.977-86.819,0"/>
  <path style="fill:#0B8CDB;"
        d="M93.714,214.942c23.946,23.93,62.787,24.009,86.804-0.008c23.938-24.056,23.954-62.897,0.008-86.867"
  />
  <path style="fill:#108EBF;" d="M75.723,171.485c-0.016,33.902,27.459,61.385,61.416,61.416
	c33.879,0.016,61.385-27.443,61.385-61.416"/>
  <path style="fill:#085BBF;" d="M198.477,169.366h-61.345l-43.41,44.489c4.12,4.128,8.83,8.2,13.989,11.004
	c0.047,0.039,0.102,0.331,0.165,0.362c1.583,0.859,3.23,1.788,4.939,2.513c0.15,0.063,0.307,0.228,0.473,0.291
	c1.623,0.693,3.3,1.315,4.994,1.851c0.228,0.079,0.465,0.197,0.677,0.26c1.757,0.536,3.529,1,5.348,1.378
	c0.165,0.047,0.331,0.095,0.504,0.134c4.001,0.819,8.097,1.245,12.327,1.245c2.064,0.016,4.12-0.087,6.136-0.291
	c0.512-0.063,0.992-0.165,1.481-0.213c1.489-0.189,2.97-0.386,4.419-0.67c0.882-0.181,1.741-0.433,2.607-0.638
	c1.071-0.26,2.135-0.504,3.19-0.819c0.945-0.291,1.89-0.662,2.828-1.008c0.922-0.331,1.875-0.63,2.773-1.008
	c0.992-0.402,1.953-0.882,2.914-1.347c0.851-0.402,1.686-0.772,2.497-1.197c1.063-0.567,2.08-1.221,3.119-1.843
	c0.662-0.417,1.339-0.788,2.001-1.205c1.347-0.906,2.67-1.898,3.978-2.938c0.26-0.205,0.551-0.394,0.819-0.599
	c1.575-1.308,3.119-3.749,4.6-5.238C192.483,201.858,198.462,185.12,198.477,169.366z"/>
  <path style="fill:#349DD1;" d="M289.212,323.643c24.072-23.954,62.889-23.954,86.867-0.008c23.906,23.969,23.969,62.858,0,86.812
	c-23.977,23.993-62.874,23.993-86.867,0C265.274,386.493,265.203,347.644,289.212,323.643z"/>
  <path style="fill:#41C0F2;"
        d="M376.078,323.635c23.906,23.969,23.969,62.858,0,86.812"/>
  <path style="fill:#0B8CDB;"
        d="M289.212,410.447c-23.938-23.954-24.009-62.811,0-86.812c24.072-23.954,62.889-23.954,86.867-0.008"
  />
  <path style="fill:#108EBF;"
        d="M332.661,428.438c-33.902,0-61.385-27.467-61.416-61.424c-0.016-33.879,27.459-61.393,61.416-61.393"
  />
  <path style="fill:#085BBF;" d="M334.787,305.684v61.338l-44.489,43.402c-4.112-4.112-8.184-8.83-11.004-13.982
	c-0.032-0.047-0.315-0.095-0.347-0.165c-0.874-1.591-1.804-3.23-2.521-4.923c-0.063-0.165-0.221-0.323-0.276-0.488
	c-0.701-1.631-1.339-3.308-1.875-4.986c-0.063-0.236-0.173-0.473-0.26-0.685c-0.528-1.757-0.977-3.529-1.363-5.348
	c-0.047-0.173-0.102-0.339-0.15-0.52c-0.803-3.978-1.245-8.082-1.245-12.312c0-2.072,0.11-4.127,0.307-6.144
	c0.047-0.504,0.15-0.977,0.197-1.465c0.197-1.497,0.402-2.977,0.693-4.427c0.165-0.866,0.417-1.733,0.622-2.591
	c0.252-1.071,0.504-2.143,0.819-3.198c0.284-0.953,0.646-1.898,1-2.836c0.323-0.922,0.622-1.867,1.008-2.781
	c0.402-0.977,0.882-1.93,1.347-2.907c0.402-0.827,0.772-1.678,1.197-2.481c0.567-1.063,1.213-2.103,1.843-3.135
	c0.41-0.646,0.788-1.331,1.213-1.985c0.898-1.363,1.89-2.678,2.922-3.994c0.213-0.26,0.394-0.544,0.614-0.811
	c1.308-1.599,3.757-3.119,5.222-4.608C302.303,311.678,319.034,305.684,334.787,305.684z"/>
</svg>
